<svg width="475" height="412" viewBox="0 0 475 412" fill="none" xmlns="http://www.w3.org/2000/svg">
<path d="M246.816 36.5916H246.238V148.891H246.816V36.5916Z" fill="black"/>
<path d="M59.9883 280.253C57.6402 280.253 55.7317 278.34 55.7317 275.986V262.291C55.7317 258.836 58.5366 256.024 61.9836 256.024H91.3113V280.253H59.9883Z" fill="white"/>
<path d="M91.0227 256.314V279.963H59.9889C57.8027 279.963 56.0215 278.177 56.0215 275.986V262.291C56.0215 258.998 58.6934 256.314 61.9842 256.314H91.0227ZM91.601 255.734H61.9842C58.3695 255.734 55.4431 258.667 55.4431 262.285V275.98C55.4431 278.496 57.4789 280.537 59.9889 280.537H91.601V255.728V255.734Z" fill="black"/>
<path d="M217.765 373.587C216.053 373.587 214.371 373.135 212.884 372.277L60.6069 284.41C56.813 282.213 54.9738 277.858 56.0264 273.568V273.533L56.0322 267.231C56.3619 268.106 56.865 269.057 57.5937 269.683L57.8135 269.875L57.9986 269.654C58.7273 268.785 59.6064 268.054 60.6011 267.474L241.414 162.811C242.894 161.953 244.583 161.501 246.295 161.501C248.007 161.501 249.69 161.953 251.176 162.811L403.453 250.678C406.507 252.446 408.329 255.612 408.329 259.149C408.329 262.685 406.507 265.851 403.453 267.619L222.652 372.277C221.172 373.135 219.483 373.587 217.771 373.587H217.765Z" fill="black"/>
<path d="M246.29 161.791C247.95 161.791 249.587 162.231 251.027 163.061L403.304 250.927C406.265 252.643 408.035 255.716 408.035 259.149C408.035 262.581 406.265 265.654 403.304 267.37L222.503 372.027C221.063 372.862 219.426 373.297 217.766 373.297C216.106 373.297 214.47 372.857 213.03 372.027L60.7523 284.161C57.0682 282.027 55.2812 277.8 56.3048 273.638L56.3222 273.568V268.535C56.6113 269.046 56.9699 269.527 57.4037 269.904L57.849 270.281L58.2249 269.834C58.9363 268.993 59.7864 268.28 60.7523 267.718L241.559 163.066C242.999 162.231 244.636 161.797 246.296 161.797M246.296 161.217C244.561 161.217 242.826 161.669 241.27 162.568L60.4631 267.219C59.399 267.834 58.5083 268.599 57.7796 269.463C56.2007 268.106 55.7438 265.057 55.7438 265.057V273.498C54.7375 277.603 56.3048 282.253 60.4631 284.665L212.74 372.532C214.296 373.43 216.031 373.883 217.766 373.883C219.501 373.883 221.236 373.43 222.792 372.532L403.593 267.874C410.29 263.996 410.29 254.307 403.593 250.429L251.316 162.562C249.76 161.663 248.025 161.211 246.29 161.211L246.296 161.217Z" fill="black"/>
<path d="M153.009 89.6421H152.43V209.072H153.009V89.6421Z" fill="black"/>
<path d="M407.62 134.363L406.969 244.376L407.547 244.379L408.198 134.366L407.62 134.363Z" fill="black"/>
<path d="M217.766 363.087C216.054 363.087 214.371 362.635 212.885 361.777L60.6134 272.037C57.5597 270.269 55.7322 267.103 55.7322 263.567C55.7322 260.03 57.554 256.864 60.6076 255.096L241.414 150.439C242.895 149.58 244.584 149.128 246.296 149.128C248.008 149.128 249.691 149.58 251.177 150.439L403.454 240.178C406.508 241.946 408.335 245.112 408.335 248.649C408.335 252.185 406.514 255.351 403.46 257.119L222.659 361.777C221.178 362.635 219.49 363.087 217.778 363.087H217.766Z" fill="white"/>
<path d="M246.29 149.418C247.95 149.418 249.587 149.859 251.021 150.688L403.304 240.433C406.265 242.149 408.035 245.222 408.035 248.655C408.035 252.087 406.265 255.16 403.304 256.876L222.503 361.533C221.063 362.362 219.426 362.803 217.766 362.803C216.106 362.803 214.47 362.362 213.035 361.533L60.7524 271.782C57.7913 270.066 56.0215 266.993 56.0215 263.561C56.0215 260.129 57.7913 257.056 60.7524 255.339L241.559 150.688C242.999 149.853 244.636 149.418 246.296 149.418M246.296 148.838C244.561 148.838 242.826 149.291 241.27 150.189L60.4632 254.841C53.766 258.72 53.766 268.408 60.4632 272.287L212.74 362.026C214.296 362.925 216.031 363.377 217.766 363.377C219.501 363.377 221.236 362.925 222.792 362.026L403.593 257.369C410.29 253.49 410.29 243.802 403.593 239.923L251.316 150.189C249.76 149.291 248.025 148.838 246.29 148.838H246.296Z" fill="black"/>
<path d="M83.7472 267.834C80.3928 267.834 77.2467 267.08 74.8812 265.712C72.5679 264.373 71.2955 262.61 71.2955 260.749V227.255H96.1989V260.749C96.1989 262.61 94.9266 264.373 92.6132 265.712C90.2478 267.08 87.1016 267.834 83.7472 267.834Z" fill="white"/>
<path d="M95.9095 227.55V260.755C95.9095 262.506 94.6892 264.181 92.4684 265.468C90.1492 266.813 87.0493 267.55 83.747 267.55C80.4446 267.55 77.3447 266.808 75.0256 265.468C72.8047 264.181 71.5844 262.511 71.5844 260.755V227.55H95.9095ZM96.4878 226.97H71.0061V260.755C71.0061 262.645 72.2495 264.529 74.7364 265.967C77.2233 267.405 80.4851 268.13 83.747 268.13C87.0088 268.13 90.2707 267.411 92.7575 265.967C95.2444 264.529 96.4878 262.639 96.4878 260.755V226.97Z" fill="black"/>
<path d="M83.7472 267.834C80.3928 267.834 77.2467 267.08 74.8812 265.712C72.5679 264.373 71.2955 262.61 71.2955 260.749C71.2955 258.888 72.5679 257.125 74.8812 255.786C77.2467 254.418 80.3928 253.664 83.7472 253.664C87.1016 253.664 90.2478 254.418 92.6132 255.786C94.9266 257.125 96.1989 258.888 96.1989 260.749C96.1989 262.61 94.9266 264.373 92.6132 265.712C90.2478 267.08 87.1016 267.834 83.7472 267.834Z" fill="white"/>
<path d="M83.747 253.96C87.0493 253.96 90.1492 254.702 92.4684 256.041C94.6892 257.328 95.9095 258.998 95.9095 260.755C95.9095 262.511 94.6892 264.181 92.4684 265.468C90.1492 266.813 87.0493 267.55 83.747 267.55C80.4446 267.55 77.3447 266.808 75.0256 265.468C72.8047 264.181 71.5844 262.511 71.5844 260.755C71.5844 258.998 72.8047 257.328 75.0256 256.041C77.3447 254.696 80.4446 253.96 83.747 253.96ZM83.747 253.38C80.4851 253.38 77.2233 254.099 74.7364 255.537C72.2495 256.974 71.0061 258.865 71.0061 260.749C71.0061 262.633 72.2495 264.523 74.7364 265.961C77.2233 267.399 80.4851 268.124 83.747 268.124C87.0088 268.124 90.2707 267.405 92.7575 265.961C95.2444 264.523 96.4878 262.633 96.4878 260.749C96.4878 258.865 95.2444 256.974 92.7575 255.537C90.2707 254.099 87.0088 253.38 83.747 253.38Z" fill="black"/>
<g style="mix-blend-mode:multiply">
<path d="M92.3528 233.621C87.5988 230.867 79.8895 230.867 75.1355 233.621C72.8222 234.96 71.6366 236.705 71.5787 238.462V260.755C71.5787 262.558 72.7643 264.361 75.1413 265.735C79.8953 268.489 87.6046 268.489 92.3585 265.735C94.7355 264.361 95.9269 262.558 95.9269 260.755V238.607C95.9269 236.804 94.7355 235.001 92.3585 233.626L92.3528 233.621Z" fill="#009D92"/>
<g opacity="0.25">
<path d="M75.1414 255.769C79.8954 253.015 87.6047 253.015 92.3586 255.769C97.1126 258.523 97.1126 262.981 92.3586 265.735C87.6047 268.489 79.8954 268.489 75.1414 265.735C70.3874 262.981 70.3874 258.523 75.1414 255.769Z" fill="#00F7AF"/>
</g>
<path d="M75.141 233.621C79.895 230.867 87.6043 230.867 92.3583 233.621C97.1122 236.375 97.1122 240.833 92.3583 243.587C87.6043 246.341 79.895 246.341 75.141 243.587C70.3871 240.833 70.3871 236.375 75.141 233.621Z" fill="#00F7AF"/>
</g>
<g style="mix-blend-mode:multiply">
<path d="M90.5015 266.999C91.2996 266.709 92.063 266.367 92.757 265.967C93.451 265.561 94.0467 265.126 94.5499 264.662V230.009H90.5015V267.005V266.999Z" fill="#D5DAED"/>
</g>
<g style="mix-blend-mode:multiply">
<path d="M87.3505 267.822C87.9924 267.712 88.6228 267.567 89.2359 267.399V233.035H87.3505V267.822Z" fill="#D5DAED"/>
</g>
<g style="mix-blend-mode:multiply">
<path d="M73.1511 264.848C73.5097 265.161 73.9203 265.457 74.3714 265.741V228.321H73.1511V264.842V264.848Z" fill="#D5DAED"/>
</g>
<g opacity="0.25">
<path d="M96.4878 252.829V226.97H71.0061C71.0061 233.041 81.5551 263.027 96.4878 252.829Z" fill="#00F7AF"/>
</g>
<path d="M74.7366 220.448C79.7103 217.566 87.7782 217.566 92.7519 220.448C95.2388 221.886 96.4822 223.776 96.4822 225.66C96.4822 227.544 95.2388 229.435 92.7519 230.872C87.7782 233.754 79.7103 233.754 74.7308 230.872C72.2439 229.435 71.0005 227.544 71.0005 225.66C71.0005 223.776 72.2439 221.886 74.7308 220.448H74.7366Z" fill="#00F7AF"/>
<path d="M83.7471 233.319C80.4332 233.319 77.1193 232.589 74.5919 231.128C72.0935 229.678 70.717 227.742 70.717 225.66C70.717 223.579 72.0935 221.642 74.5919 220.193C79.6408 217.271 87.8533 217.271 92.8964 220.193C95.3949 221.636 96.7713 223.579 96.7713 225.66C96.7713 227.742 95.3949 229.678 92.8964 231.128C90.3749 232.589 87.0552 233.319 83.7413 233.319H83.7471ZM74.8811 220.697C72.5677 222.036 71.2954 223.799 71.2954 225.66C71.2954 227.521 72.5677 229.284 74.8811 230.623C79.7681 233.453 87.7203 233.453 92.613 230.623C94.9264 229.284 96.1988 227.521 96.1988 225.66C96.1988 223.799 94.9264 222.036 92.613 220.697C87.7261 217.868 79.7739 217.868 74.8869 220.697H74.8811Z" fill="black"/>
<path d="M80.5087 222.228C82.2958 221.19 85.1991 221.19 86.9862 222.228C87.8826 222.744 88.3279 223.422 88.3279 224.1C88.3279 224.779 87.8826 225.457 86.9862 225.973C85.1991 227.011 82.2958 227.011 80.5087 225.973C79.6123 225.457 79.167 224.779 79.167 224.1C79.167 223.422 79.6123 222.744 80.5087 222.228Z" fill="#00F7AF"/>
<path d="M83.7474 227.04C82.5214 227.04 81.2953 226.768 80.3641 226.228C79.4041 225.672 78.8778 224.918 78.8778 224.101C78.8778 223.283 79.4041 222.529 80.3641 221.973C82.2322 220.894 85.2685 220.894 87.1307 221.973C88.0908 222.529 88.6171 223.283 88.6171 224.101C88.6171 224.918 88.0908 225.672 87.1307 226.228C86.1996 226.768 84.9735 227.04 83.7474 227.04ZM83.7474 221.741C82.6255 221.741 81.5035 221.99 80.6533 222.483C79.8841 222.929 79.4561 223.503 79.4561 224.106C79.4561 224.709 79.8841 225.283 80.6533 225.73C82.3594 226.715 85.1355 226.715 86.8416 225.73C87.6165 225.283 88.0387 224.703 88.0387 224.106C88.0387 223.509 87.6108 222.929 86.8416 222.483C85.9856 221.99 84.8694 221.741 83.7474 221.741Z" fill="black"/>
<path d="M86.986 225.979C85.199 227.017 82.2957 227.017 80.5086 225.979C79.6122 225.463 79.1669 224.785 79.1669 224.106V225.666C79.1669 226.344 79.6122 227.023 80.5086 227.539C82.2957 228.576 85.199 228.576 86.986 227.539C87.8825 227.023 88.3278 226.344 88.3278 225.666V224.106C88.3278 224.785 87.8825 225.463 86.986 225.979Z" fill="black"/>
<path d="M96.488 225.66C96.488 227.55 95.2445 229.435 92.7576 230.872C87.7839 233.754 79.716 233.754 74.7365 230.872C72.2497 229.435 71.0062 227.544 71.0062 225.66V226.965C71.0062 228.855 72.2497 230.739 74.7365 232.177C79.7103 235.059 87.7781 235.059 92.7576 232.177C95.2445 230.739 96.488 228.849 96.488 226.965V225.66Z" fill="white"/>
<path d="M83.7471 234.624C80.4332 234.624 77.1193 233.893 74.5919 232.432C72.0935 230.983 70.717 229.046 70.717 226.965V225.66H71.2954C71.2954 227.521 72.5677 229.284 74.8811 230.623C79.7681 233.453 87.7203 233.453 92.613 230.623C94.9264 229.284 96.1988 227.521 96.1988 225.66H96.7771V226.965C96.7771 229.04 95.4006 230.983 92.9022 232.432C90.3806 233.893 87.061 234.624 83.7471 234.624ZM71.5383 228.362C72.0125 229.695 73.1576 230.93 74.8811 231.928C79.7681 234.757 87.7203 234.757 92.613 231.928C94.3365 230.93 95.4874 229.695 95.9559 228.362C95.3023 229.394 94.2671 230.333 92.9022 231.128C87.8533 234.05 79.6408 234.05 74.5919 231.128C73.2213 230.333 72.1918 229.394 71.5383 228.362Z" fill="black"/>
<path d="M56.0329 151.998H55.4546V265.051H56.0329V151.998Z" fill="black"/>
<path d="M407.074 316.675L367.116 292.985V277.383L380.597 269.579V253.971L394.079 246.173V230.565L407.554 222.761L447.997 246.173" fill="white"/>
<path d="M406.924 316.924L366.827 293.153V277.215L380.309 269.411V253.803L393.79 246.005V230.397L407.554 222.431L407.699 222.512L448.142 245.918L447.853 246.422L407.554 223.098L394.368 230.733V246.335L380.887 254.139V269.747L367.406 277.545V292.823L407.219 316.426L406.924 316.924Z" fill="black"/>
<path d="M394.211 245.905L393.922 246.407L434.362 269.813L434.651 269.311L394.211 245.905Z" fill="black"/>
<path d="M394.227 230.329L393.935 230.83L436.163 255.558L436.455 255.057L394.227 230.329Z" fill="black"/>
<path d="M380.755 253.747L380.458 254.245L420.895 278.468L421.192 277.97L380.755 253.747Z" fill="black"/>
<path d="M380.737 269.304L380.443 269.803L421.047 293.914L421.341 293.416L380.737 269.304Z" fill="black"/>
<path d="M367.263 277.118L366.972 277.619L407.982 301.643L408.274 301.143L367.263 277.118Z" fill="black"/>
<path d="M447.998 246.173V292.724L407.074 316.675V300.789L420.451 293.327V277.719L434.517 269.579V254.244L447.998 246.173Z" fill="black"/>
<path d="M280.597 192.711L239.887 169.09V168.922V163.171V163.003L292.204 132.471V132.459L302.626 138.605V144.525L292.204 138.379V138.385L244.844 166.046L280.597 186.797V192.711Z" fill="#00FFA7"/>
<path d="M280.597 193.001C280.545 193.001 280.499 192.989 280.452 192.96L239.743 169.34C239.656 169.287 239.598 169.195 239.598 169.09V163.003C239.598 162.898 239.65 162.805 239.743 162.753L292.031 132.233C292.031 132.233 292.054 132.216 292.066 132.21C292.158 132.158 292.268 132.158 292.355 132.21L302.776 138.356C302.863 138.408 302.921 138.501 302.921 138.605V144.525C302.921 144.629 302.863 144.722 302.776 144.774C302.684 144.826 302.574 144.826 302.487 144.774L292.216 138.721L245.428 166.046L280.747 186.542C280.834 186.594 280.892 186.687 280.892 186.791V192.711C280.892 192.815 280.834 192.908 280.747 192.96C280.701 192.983 280.655 193.001 280.603 193.001H280.597ZM240.177 168.922L280.308 192.206V186.959L244.699 166.296C244.613 166.244 244.555 166.151 244.555 166.046C244.555 165.942 244.607 165.849 244.699 165.797L292.031 138.153C292.031 138.153 292.054 138.136 292.066 138.13C292.158 138.078 292.268 138.078 292.355 138.13L302.343 144.015V138.767L292.216 132.796L240.183 163.171V168.922H240.177Z" fill="black"/>
<path d="M171.174 276.421L280.752 212.592L314.123 231.91C328.616 240.3 329.09 248.881 311.549 259.96L225.925 309.926C218.609 314.136 202.861 317.33 185.638 308.923L167.432 298.389C157.675 292.823 157.415 284.387 171.168 276.426L171.174 276.421Z" fill="#009D92"/>
<path d="M207.876 314.478C200.953 314.478 193.215 312.941 185.517 309.184L167.294 298.638C162.632 295.983 160.163 292.707 160.151 289.17C160.14 284.793 163.899 280.299 171.03 276.171L280.753 212.256L280.897 212.337L314.268 231.655C321.509 235.847 325.065 239.987 325.152 244.318C325.245 249.234 320.849 254.429 311.706 260.204L226.076 310.176C221.565 312.773 215.169 314.478 207.876 314.478ZM280.753 212.928L171.319 276.676C164.379 280.694 160.718 285.013 160.73 289.17C160.741 292.486 163.112 295.583 167.583 298.134L185.789 308.668C203.614 317.371 219.321 313.394 225.787 309.671L311.405 259.711C320.352 254.058 324.66 249.026 324.574 244.329C324.493 240.219 321.029 236.241 313.979 232.16L280.753 212.928Z" fill="black"/>
<path d="M236.417 275.922C232.866 275.441 227.598 276.142 227.598 276.142L237.03 287.309L238.245 287.431C238.245 287.431 240.732 283.877 240.691 281.871C240.645 279.859 239.968 276.409 236.417 275.928V275.922Z" fill="#00FFA7"/>
<path d="M238.39 287.738L236.892 287.593L227.043 275.934L227.569 275.864C227.789 275.835 232.919 275.162 236.464 275.644C240.437 276.183 240.952 280.178 240.992 281.871C241.038 283.952 238.598 287.46 238.494 287.605L238.395 287.744L238.39 287.738ZM237.181 287.036L238.112 287.129C238.557 286.462 240.449 283.552 240.408 281.876C240.373 280.334 239.916 276.693 236.383 276.212C233.561 275.829 229.587 276.212 228.17 276.368L237.181 287.036Z" fill="black"/>
<path d="M307.345 231.128C308.334 230.785 314.511 230.791 315.557 233.568C316.604 236.346 315.476 239.024 314.696 239.819C313.915 240.607 309.253 241.14 308.993 240.793C308.733 240.445 307.345 231.133 307.345 231.133V231.128Z" fill="#00FFA7"/>
<path d="M309.659 241.187C309.543 241.187 309.445 241.187 309.358 241.175C309.028 241.152 308.861 241.088 308.762 240.961C308.502 240.607 307.582 234.676 307.062 231.168L307.027 230.93L307.253 230.849C308.409 230.449 314.719 230.513 315.83 233.464C316.911 236.34 315.76 239.152 314.904 240.016C314.181 240.746 311.029 241.181 309.664 241.181L309.659 241.187ZM309.219 240.578C309.89 240.74 313.829 240.277 314.488 239.61C315.228 238.862 316.258 236.264 315.286 233.667C314.395 231.296 309.127 231.075 307.669 231.342C308.172 234.699 308.988 239.842 309.219 240.578Z" fill="black"/>
<path d="M311.879 235.082L304.846 231.348C303.019 230.438 300.567 230.652 297.872 232.212C292.21 235.488 287.623 243.46 287.623 250.011C287.623 253.073 288.624 255.282 290.266 256.435L298.062 260.604C299.867 261.404 302.244 261.155 304.846 259.647C310.508 256.366 315.1 248.399 315.1 241.848C315.1 238.45 313.863 236.096 311.885 235.082H311.879Z" fill="#00FFA7"/>
<path d="M300.26 261.34C299.433 261.34 298.653 261.184 297.941 260.871L290.122 256.696C288.306 255.426 287.323 253.061 287.323 250.017C287.323 243.378 291.984 235.285 297.722 231.968C300.405 230.414 302.979 230.107 304.974 231.093L312.007 234.827C314.152 235.928 315.378 238.485 315.378 241.848C315.378 248.481 310.717 256.58 304.98 259.902C303.331 260.859 301.718 261.34 300.255 261.34H300.26ZM302.452 231.099C301.093 231.099 299.584 231.557 298.017 232.461C292.441 235.685 287.907 243.558 287.907 250.011C287.907 252.858 288.804 255.055 290.429 256.198L298.196 260.349C299.966 261.132 302.279 260.801 304.696 259.398C310.272 256.169 314.806 248.295 314.806 241.848C314.806 238.665 313.719 236.351 311.746 235.337L304.714 231.603C304.031 231.267 303.274 231.099 302.452 231.099Z" fill="black"/>
<path d="M315.095 241.848C315.095 248.399 310.502 256.372 304.841 259.647C299.179 262.923 294.587 260.268 294.587 253.716C294.587 247.165 299.179 239.192 304.841 235.917C310.502 232.641 315.095 235.296 315.095 241.848Z" fill="#00FFA7"/>
<path d="M300.266 261.352C299.242 261.352 298.293 261.108 297.455 260.627C295.425 259.45 294.309 256.998 294.309 253.722C294.309 247.083 298.97 238.984 304.707 235.667C307.541 234.027 310.213 233.771 312.243 234.948C314.273 236.125 315.389 238.578 315.389 241.854C315.389 248.486 310.728 256.586 304.991 259.908C303.331 260.871 301.723 261.358 300.266 261.358V261.352ZM309.421 234.803C308.067 234.803 306.558 235.261 304.991 236.172C299.415 239.395 294.881 247.269 294.881 253.722C294.881 256.783 295.899 259.062 297.738 260.123C299.583 261.19 302.053 260.934 304.696 259.404C310.271 256.174 314.805 248.301 314.805 241.854C314.805 238.792 313.793 236.52 311.948 235.453C311.202 235.018 310.346 234.803 309.421 234.803Z" fill="black"/>
<path d="M313.459 243.616C313.459 248.747 309.867 254.986 305.432 257.554C301.001 260.117 297.404 258.041 297.404 252.91C297.404 247.779 300.996 241.541 305.432 238.978C309.862 236.415 313.459 238.491 313.459 243.622V243.616Z" fill="#00FFA7"/>
<path d="M301.851 258.946C301.036 258.946 300.284 258.754 299.619 258.366C298.011 257.433 297.126 255.496 297.126 252.904C297.126 247.686 300.793 241.326 305.298 238.717C307.536 237.424 309.653 237.221 311.261 238.155C312.869 239.088 313.754 241.025 313.754 243.616C313.754 248.828 310.087 255.195 305.582 257.804C304.275 258.563 303.002 258.946 301.851 258.946ZM309.017 238.16C307.97 238.16 306.796 238.52 305.582 239.221C301.238 241.738 297.699 247.872 297.699 252.904C297.699 255.276 298.48 257.038 299.902 257.862C301.325 258.685 303.239 258.488 305.287 257.299C309.63 254.783 313.169 248.643 313.169 243.616C313.169 241.245 312.389 239.482 310.966 238.659C310.388 238.323 309.734 238.16 309.017 238.16Z" fill="black"/>
<path d="M307.022 241.859L307.716 240.595C308.907 240.48 309.896 240.914 310.55 241.813L307.022 245.222V241.859ZM304.136 242.306V246.672L301.4 247.298L300.88 246.492C301.701 244.874 302.84 243.39 304.136 242.3V242.306ZM300.353 254.76C299.81 254.035 299.497 253.003 299.497 251.698C299.497 251.495 299.503 251.293 299.521 251.09L303.106 250.342L301.365 254.081L300.359 254.76H300.353ZM306.819 254.139C306.374 254.522 305.911 254.858 305.431 255.131C304.61 255.606 303.823 255.867 303.112 255.931L305.298 251.124L306.97 252.8L306.819 254.139ZM307.745 247.907L310.544 245.292H311.353C311.267 246.857 310.752 248.539 309.954 250.092L307.745 247.901V247.907Z" fill="#00FFA7"/>
<path d="M302.649 256.261L305.217 250.626L307.282 252.696L307.103 254.29L307.016 254.365C306.547 254.765 306.067 255.108 305.582 255.392C304.743 255.879 303.922 256.157 303.141 256.227L302.649 256.267V256.261ZM305.397 251.623L303.604 255.56C304.147 255.444 304.714 255.212 305.292 254.876C305.715 254.632 306.137 254.331 306.553 253.989L306.675 252.904L305.397 251.623ZM300.296 255.148L300.128 254.928C299.526 254.134 299.208 253.015 299.208 251.693C299.208 251.484 299.214 251.275 299.231 251.061L299.249 250.84L303.609 249.93L301.585 254.267L300.284 255.142L300.296 255.148ZM299.804 251.322C299.798 251.449 299.792 251.571 299.792 251.693C299.792 252.765 300.012 253.675 300.44 254.354L301.14 253.878L302.603 250.736L299.798 251.322H299.804ZM310.041 250.574L307.334 247.895L310.44 244.996H311.672L311.654 245.303C311.567 246.875 311.07 248.573 310.22 250.22L310.041 250.568V250.574ZM308.173 247.907L309.884 249.6C310.538 248.243 310.937 246.863 311.053 245.576H310.665L308.173 247.907ZM301.273 247.623L300.55 246.509L300.625 246.359C301.481 244.683 302.661 243.164 303.956 242.08L304.431 241.68V246.898L301.273 247.623ZM301.221 246.475L301.539 246.967L303.852 246.434V242.944C302.84 243.9 301.921 245.129 301.215 246.469L301.221 246.475ZM306.744 245.895V241.778L307.548 240.317L307.698 240.306C308.982 240.184 310.081 240.653 310.792 241.639L310.943 241.842L306.744 245.895ZM307.322 241.929V244.532L310.168 241.784C309.607 241.135 308.838 240.816 307.901 240.874L307.317 241.935L307.322 241.929Z" fill="black"/>
<path d="M234.977 279.789L227.944 276.055C226.117 275.145 223.665 275.36 220.97 276.919C215.308 280.195 210.721 288.167 210.721 294.719C210.721 297.78 211.722 299.989 213.364 301.143L221.161 305.311C222.965 306.111 225.342 305.862 227.944 304.355C233.606 301.073 238.198 293.107 238.198 286.555C238.198 283.158 236.961 280.804 234.983 279.789H234.977Z" fill="#00FFA7"/>
<path d="M223.358 306.048C222.531 306.048 221.75 305.891 221.039 305.578L213.226 301.404C211.41 300.134 210.426 297.768 210.426 294.724C210.426 288.086 215.088 279.992 220.825 276.676C223.508 275.122 226.082 274.815 228.077 275.8L235.11 279.534C237.256 280.636 238.482 283.192 238.482 286.555C238.482 293.188 233.82 301.288 228.083 304.61C226.435 305.566 224.821 306.048 223.358 306.048ZM225.55 275.806C224.197 275.806 222.681 276.264 221.114 277.168C215.539 280.392 211.005 288.266 211.005 294.719C211.005 297.565 211.901 299.763 213.526 300.905L221.293 305.056C223.057 305.839 225.377 305.508 227.794 304.105C233.369 300.876 237.903 293.002 237.903 286.555C237.903 283.372 236.816 281.059 234.844 280.05L227.811 276.316C227.129 275.98 226.371 275.812 225.55 275.812V275.806Z" fill="black"/>
<path d="M238.192 286.555C238.192 293.107 233.6 301.079 227.938 304.355C222.276 307.63 217.684 304.975 217.684 298.423C217.684 291.872 222.276 283.9 227.938 280.624C233.6 277.348 238.192 280.004 238.192 286.555Z" fill="#00FFA7"/>
<path d="M223.364 306.053C222.34 306.053 221.392 305.81 220.553 305.329C218.523 304.152 217.407 301.699 217.407 298.423C217.407 291.785 222.068 283.685 227.805 280.369C230.639 278.728 233.317 278.473 235.347 279.65C237.377 280.827 238.493 283.279 238.493 286.555C238.493 293.188 233.832 301.288 228.094 304.61C226.435 305.572 224.827 306.059 223.369 306.059L223.364 306.053ZM232.519 279.505C231.165 279.505 229.656 279.963 228.089 280.873C222.513 284.097 217.979 291.97 217.979 298.423C217.979 301.485 218.997 303.763 220.836 304.824C222.681 305.891 225.151 305.636 227.794 304.105C233.369 300.876 237.903 293.002 237.903 286.555C237.903 283.494 236.891 281.221 235.046 280.154C234.3 279.72 233.444 279.505 232.519 279.505Z" fill="black"/>
<path d="M236.556 288.324C236.556 293.455 232.965 299.693 228.529 302.262C224.099 304.824 220.502 302.749 220.502 297.618C220.502 292.486 224.093 286.248 228.529 283.685C232.959 281.123 236.556 283.198 236.556 288.329V288.324Z" fill="#00FFA7"/>
<path d="M224.949 303.647C224.134 303.647 223.382 303.456 222.717 303.068C221.109 302.134 220.224 300.198 220.224 297.606C220.224 292.394 223.891 286.028 228.396 283.419C230.634 282.126 232.751 281.923 234.359 282.856C235.967 283.79 236.852 285.726 236.852 288.318C236.852 293.53 233.185 299.896 228.68 302.505C227.373 303.265 226.1 303.647 224.949 303.647ZM232.115 282.862C231.068 282.862 229.894 283.216 228.68 283.923C224.336 286.439 220.797 292.573 220.797 297.606C220.797 299.977 221.578 301.74 223 302.563C224.423 303.386 226.337 303.189 228.385 302.001C232.728 299.484 236.268 293.345 236.268 288.318C236.268 285.946 235.487 284.184 234.064 283.361C233.486 283.024 232.832 282.862 232.115 282.862Z" fill="black"/>
<path d="M230.119 286.567L230.813 285.303C232.004 285.187 232.993 285.622 233.647 286.52L230.119 289.93V286.567ZM227.233 287.013V291.379L224.498 292.005L223.977 291.199C224.798 289.582 225.938 288.097 227.233 287.007V287.013ZM223.451 299.467C222.907 298.742 222.595 297.71 222.595 296.406C222.595 296.203 222.601 296 222.618 295.797L226.204 295.049L224.463 298.789L223.457 299.467H223.451ZM229.917 298.847C229.471 299.229 229.009 299.566 228.529 299.838C227.707 300.314 226.921 300.574 226.209 300.638L228.396 295.832L230.067 297.507L229.917 298.847ZM230.842 292.614L233.641 289.999H234.451C234.364 291.565 233.849 293.246 233.051 294.8L230.842 292.608V292.614Z" fill="#00FFA7"/>
<path d="M225.748 300.969L228.315 295.333L230.38 297.403L230.201 298.997L230.114 299.073C229.646 299.473 229.166 299.815 228.68 300.099C227.841 300.586 227.02 300.864 226.239 300.934L225.748 300.975V300.969ZM228.495 296.336L226.702 300.273C227.245 300.157 227.806 299.925 228.391 299.589C228.813 299.345 229.235 299.044 229.651 298.702L229.773 297.618L228.495 296.336ZM223.394 299.861L223.226 299.641C222.624 298.847 222.306 297.722 222.306 296.406C222.306 296.197 222.312 295.988 222.33 295.774L222.347 295.554L226.708 294.643L224.683 298.98L223.382 299.856L223.394 299.861ZM222.902 296.035C222.896 296.156 222.891 296.284 222.891 296.406C222.891 297.478 223.11 298.389 223.538 299.067L224.238 298.592L225.701 295.449L222.896 296.035H222.902ZM233.139 295.287L230.432 292.608L233.538 289.709H234.77L234.752 290.017C234.666 291.588 234.168 293.287 233.318 294.933L233.139 295.281V295.287ZM231.271 292.62L232.983 294.313C233.636 292.956 234.035 291.576 234.151 290.289H233.763L231.271 292.62ZM224.371 292.336L223.648 291.223L223.723 291.072C224.579 289.396 225.759 287.877 227.055 286.793L227.529 286.393V291.611L224.371 292.336ZM224.319 291.188L224.637 291.681L226.95 291.147V287.657C225.938 288.613 225.019 289.843 224.313 291.182L224.319 291.188ZM229.836 290.608V286.491L230.64 285.03L230.791 285.019C232.075 284.897 233.173 285.367 233.885 286.352L234.035 286.555L229.836 290.608ZM230.415 286.642V289.245L233.26 286.497C232.699 285.848 231.93 285.535 230.993 285.587L230.409 286.648L230.415 286.642Z" fill="black"/>
<path d="M291.968 253.113C291.968 253.113 293.784 248.278 295.033 245.773C296.283 243.268 299.307 236.728 305.906 233.029C312.505 229.33 314.963 233.482 315.021 236.178C315.044 237.314 314.975 238.155 314.882 238.746C314.83 239.082 315.246 239.279 315.478 239.03C316.195 238.271 317.132 237.146 317.346 236.253C317.704 234.757 318.236 230.264 318.254 228.003C318.271 225.747 317.594 222.541 317.594 222.541L317.294 214.331L316.895 213.496C316.895 213.496 316.727 212.169 316.212 210.255C315.703 208.342 315.605 207.925 313.621 205.571C311.638 203.222 307.711 200.521 307.711 200.521C307.982 196.451 305.952 195.134 305.952 195.134L295.039 187.336C294.432 186.901 293.796 186.513 293.136 186.159C289.898 184.432 286.075 182.704 284.189 181.875C283.299 181.48 282.356 181.202 281.396 181.051C281.309 181.04 281.223 181.022 281.136 181.011C279.123 180.721 277.076 181.028 275.208 181.834C268.904 184.542 251.704 191.905 244.249 195.621C235.811 199.831 225.488 205.936 223.897 206.846C222.307 207.756 218.831 210.487 218.831 210.487L204.39 223.672C204.39 222.5 204.39 219.677 204.326 219.427C204.257 219.114 201.753 216.737 201.273 216.645C200.793 216.552 199.885 217.775 199.682 218.314C199.48 218.854 199.347 219.538 199.48 220.523C199.607 221.509 200.128 223.718 200.515 224.883C200.729 225.527 201.012 226.141 201.221 226.559L196.814 230.583L194.055 232.31C193.876 232.421 193.714 232.536 193.546 232.658C191.452 234.235 176.624 245.396 174.195 247.263C171.586 249.275 169.279 253.368 169.279 253.368L164.964 260.836C164.964 260.836 164.473 263.033 164.172 265.839C163.871 268.646 163.224 277.29 164.854 280.514C166.48 283.737 171.552 287.906 176.884 291.437C182.216 294.962 190.278 299.131 193.858 300.418C197.438 301.711 199.781 302.795 203.308 302.795C206.836 302.795 210.185 302.511 211.498 301.554C212.811 300.598 213.25 299.229 213.996 297.142C214.742 295.049 217.651 289.837 218.606 288.289C221.33 283.865 225.598 279.32 230.311 277.203C235.863 274.71 239.669 278.096 239.825 281.447C240.004 285.268 238.252 287.152 238.252 287.152V287.419L271.171 268.257C271.171 268.257 288.226 258.146 288.943 257.554L291.991 253.038C292.066 252.841 292.327 252.162 292.674 251.264L239.773 283.1C239.709 283.685 239.605 284.213 239.478 284.671" fill="#00FFA7"/>
<path d="M203.308 303.097C200.225 303.097 198.016 302.273 195.211 301.235C194.748 301.061 194.268 300.888 193.759 300.702C190.225 299.426 182.187 295.304 176.721 291.686C170.464 287.547 166.045 283.529 164.593 280.653C162.743 276.989 163.761 266.947 163.882 265.816C164.183 263.027 164.674 260.801 164.68 260.778L164.715 260.697L169.029 253.229C169.122 253.061 171.395 249.06 174.02 247.037C176.287 245.292 189.404 235.418 193.372 232.432C193.545 232.305 193.719 232.183 193.904 232.067L196.662 230.339L200.867 226.495C200.67 226.089 200.433 225.55 200.242 224.976C199.861 223.822 199.329 221.596 199.196 220.558C199.08 219.665 199.149 218.917 199.415 218.21C199.612 217.694 200.595 216.215 201.33 216.355C201.862 216.459 204.499 218.871 204.609 219.358C204.649 219.543 204.672 220.773 204.678 223.011L218.634 210.273C218.79 210.145 222.167 207.507 223.752 206.597C223.949 206.487 224.278 206.289 224.729 206.029C228.009 204.121 236.724 199.054 244.121 195.361C251.206 191.824 267.226 184.942 274.062 182.008L275.091 181.567C277.052 180.721 279.157 180.431 281.175 180.727L281.441 180.767C282.419 180.924 283.385 181.208 284.31 181.614C286.276 182.478 290.053 184.188 293.274 185.91C293.957 186.275 294.605 186.675 295.206 187.104L306.119 194.902C306.195 194.955 308.224 196.317 308.01 200.381C308.728 200.886 312.042 203.257 313.846 205.391C315.847 207.762 315.968 208.214 316.477 210.116L316.495 210.186C316.957 211.919 317.143 213.166 317.177 213.421L317.582 214.325L317.883 222.535C317.906 222.616 318.565 225.747 318.548 228.008C318.531 230.258 317.993 234.809 317.634 236.322C317.409 237.273 316.454 238.427 315.697 239.233C315.506 239.436 315.205 239.488 314.956 239.366C314.702 239.245 314.569 238.984 314.609 238.705C314.719 237.992 314.76 237.146 314.742 236.189C314.719 234.972 314.152 233.244 312.643 232.38C311.041 231.458 308.762 231.771 306.056 233.29C299.815 236.786 296.768 242.938 295.466 245.564L295.299 245.906C294.072 248.365 292.262 253.171 292.245 253.217H292.239L289.133 257.798C288.405 258.395 272.026 268.112 271.326 268.524L237.968 287.941V287.06L238.043 286.978C238.043 286.978 239.708 285.123 239.535 281.482C239.46 279.905 238.523 278.374 237.094 277.493C235.278 276.374 232.913 276.368 230.426 277.487C226.256 279.36 221.924 283.465 218.848 288.463C217.963 289.895 215.019 295.148 214.261 297.264L214.157 297.56C213.452 299.542 212.983 300.853 211.665 301.815C210.485 302.673 207.674 303.108 203.308 303.108V303.097ZM165.241 260.952C165.172 261.271 164.738 263.341 164.46 265.88C164.027 269.927 163.668 277.534 165.114 280.392C166.519 283.181 170.868 287.118 177.045 291.205C182.476 294.8 190.457 298.893 193.956 300.157C194.465 300.343 194.945 300.516 195.413 300.69C198.16 301.711 200.335 302.517 203.308 302.517C208.588 302.517 210.583 301.873 211.329 301.334C212.509 300.476 212.949 299.235 213.619 297.357L213.723 297.055C214.493 294.904 217.471 289.593 218.362 288.144C221.496 283.048 225.921 278.861 230.195 276.942C232.855 275.748 235.417 275.76 237.401 276.983C238.991 277.963 240.032 279.673 240.119 281.436C240.136 281.83 240.136 282.207 240.119 282.566L292.453 251.072C293.101 249.431 294.044 247.118 294.784 245.64L294.952 245.298C296.276 242.625 299.376 236.357 305.778 232.774C309.433 230.728 311.689 231.151 312.932 231.87C314.65 232.855 315.292 234.803 315.321 236.172C315.344 237.163 315.298 238.044 315.182 238.787C315.182 238.798 315.182 238.821 315.211 238.839C315.251 238.856 315.274 238.839 315.28 238.827C316.287 237.766 316.923 236.827 317.079 236.183C317.437 234.699 317.958 230.217 317.981 228.003C317.998 225.805 317.333 222.639 317.328 222.605L317.021 214.407L316.622 213.537C316.622 213.537 316.449 212.203 315.951 210.331L315.934 210.261C315.442 208.417 315.338 208.035 313.418 205.756C311.481 203.46 307.6 200.782 307.559 200.758L307.421 200.666L307.432 200.503C307.687 196.677 305.824 195.389 305.801 195.378L294.882 187.574C294.298 187.157 293.668 186.768 293.014 186.414C289.81 184.704 286.045 182.999 284.09 182.136C283.211 181.747 282.297 181.48 281.366 181.33L281.112 181.289C279.198 181.011 277.202 181.289 275.334 182.089L274.305 182.53C267.469 185.464 251.466 192.34 244.393 195.871C237.013 199.552 228.309 204.614 225.036 206.521C224.591 206.782 224.255 206.974 224.058 207.09C222.508 207.977 219.062 210.678 219.027 210.707L204.123 224.315V223.66C204.123 220.807 204.094 219.63 204.065 219.48C203.897 219.149 201.659 217.039 201.237 216.917C201 216.888 200.185 217.845 199.976 218.407C199.745 219.022 199.687 219.677 199.791 220.477C199.924 221.486 200.439 223.66 200.815 224.785C201.029 225.422 201.307 226.025 201.509 226.42L201.607 226.617L197.038 230.791L194.233 232.554C194.066 232.658 193.904 232.768 193.742 232.89C189.774 235.876 176.658 245.75 174.396 247.495C171.863 249.443 169.579 253.473 169.556 253.513L165.264 260.946L165.241 260.952ZM240.055 283.285C239.865 284.909 239.344 286.039 238.945 286.694L271.026 268.019C276.832 264.575 287.878 257.995 288.729 257.369L291.73 252.916C291.788 252.759 291.915 252.423 292.095 251.965L240.05 283.285H240.055Z" fill="black"/>
<path d="M263.548 249.536C263.484 249.536 263.311 249.536 263.149 249.176C263.08 249.026 262.877 248.556 263.907 247.866C264.838 247.24 268.105 245.187 268.851 244.724C269.031 244.613 269.146 244.59 269.216 244.59C269.453 244.59 269.517 244.909 269.528 245.008C269.551 245.182 269.58 245.79 268.903 246.318C268.47 246.654 266.602 247.779 265.364 248.521C264.612 248.973 264.144 249.252 264.028 249.333C263.837 249.466 263.675 249.536 263.548 249.536Z" fill="white"/>
<path d="M269.192 244.88C269.21 244.909 269.233 244.967 269.244 245.042C269.262 245.176 269.285 245.651 268.73 246.086C268.313 246.411 266.463 247.524 265.219 248.272L265.196 248.289C264.404 248.765 263.987 249.014 263.872 249.101C263.681 249.234 263.582 249.252 263.548 249.252C263.548 249.252 263.49 249.223 263.42 249.066C263.305 248.805 263.525 248.481 264.074 248.11C265.011 247.483 268.325 245.396 269.007 244.973C269.1 244.915 269.163 244.892 269.192 244.886M269.215 244.3C269.065 244.3 268.892 244.358 268.701 244.48C267.984 244.921 264.687 246.996 263.75 247.628C262.929 248.179 262.64 248.741 262.888 249.298C263.045 249.652 263.27 249.831 263.548 249.831C263.739 249.831 263.953 249.75 264.195 249.576C264.305 249.501 264.837 249.176 265.514 248.776C266.833 247.982 268.637 246.898 269.082 246.55C269.881 245.924 269.846 245.182 269.817 244.967C269.771 244.648 269.591 244.3 269.215 244.3Z" fill="black"/>
<path d="M291.77 230.785C291.707 230.785 291.533 230.785 291.371 230.426C291.302 230.275 291.099 229.806 292.129 229.116C293.06 228.49 296.328 226.437 297.074 225.973C297.253 225.863 297.369 225.84 297.438 225.84C297.675 225.84 297.739 226.159 297.75 226.257C297.774 226.431 297.802 227.04 297.126 227.568C296.692 227.904 294.824 229.029 293.586 229.771C292.834 230.223 292.366 230.501 292.25 230.583C292.059 230.716 291.898 230.785 291.77 230.785Z" fill="white"/>
<path d="M297.421 226.13C297.438 226.159 297.461 226.217 297.473 226.292C297.49 226.425 297.513 226.901 296.958 227.336C296.542 227.66 294.691 228.774 293.448 229.522C292.667 229.991 292.222 230.258 292.094 230.345C291.904 230.478 291.805 230.496 291.771 230.496C291.771 230.496 291.713 230.467 291.643 230.31C291.528 230.049 291.747 229.724 292.297 229.353C293.234 228.727 296.519 226.657 297.23 226.217C297.323 226.159 297.386 226.136 297.415 226.13M297.438 225.544C297.288 225.544 297.114 225.602 296.924 225.724C296.206 226.165 292.91 228.24 291.973 228.872C291.152 229.423 290.863 229.985 291.111 230.542C291.267 230.896 291.493 231.075 291.771 231.075C291.961 231.075 292.175 230.994 292.418 230.82C292.528 230.745 293.06 230.42 293.737 230.02C295.056 229.226 296.86 228.142 297.305 227.794C298.103 227.168 298.069 226.425 298.04 226.211C297.993 225.892 297.814 225.544 297.438 225.544Z" fill="black"/>
<g style="mix-blend-mode:multiply">
<path d="M224.44 281.592L224.215 281.5L222.821 280.583L217.737 277.012L217.969 276.681L218.206 276.844L218.304 276.705L223.145 280.102L224.533 281.018L224.44 281.157L224.648 281.395L224.44 281.592Z" fill="black"/>
</g>
<g style="mix-blend-mode:multiply">
<path d="M219.715 274.884L219.448 274.577L219.668 274.386L219.553 274.252C219.593 274.217 223.451 270.831 225.197 269.759L225.255 269.724C227.765 268.193 230.957 267.967 233.797 269.115L237.591 270.657L301.648 230.565L301.955 231.058L237.643 271.307L233.577 269.654C230.911 268.576 227.91 268.791 225.556 270.223L225.348 270.008L225.498 270.257C223.809 271.295 219.975 274.658 219.934 274.693L219.715 274.884Z" fill="black"/>
</g>
<path d="M304.083 222.987C306.344 221.277 313.354 215.67 316.066 209.919C316.078 209.948 316.089 209.983 316.101 210.012C316.193 210.255 316.292 210.499 316.378 210.748C316.864 212.093 317.13 213.253 317.211 214.395C316.818 215.491 316.245 216.581 315.812 217.056C315.181 217.746 314.626 217.903 313.984 218.094C313.469 218.245 312.932 218.401 312.342 218.836L309.132 221.219C307.674 222.303 305.893 222.924 304.083 222.993V222.987Z" fill="white"/>
<path d="M316.031 210.632C316.06 210.702 316.083 210.771 316.106 210.841C316.575 212.134 316.829 213.253 316.916 214.349C316.54 215.381 315.991 216.418 315.597 216.853C315.025 217.479 314.528 217.624 313.903 217.81C313.388 217.961 312.804 218.129 312.174 218.598C311.578 219.039 310.225 220.042 308.964 220.981C307.819 221.834 306.465 222.39 305.06 222.605C307.772 220.477 313.411 215.665 316.037 210.632M316.089 209.154C313.215 216.134 303.221 223.266 303.221 223.266C303.4 223.277 303.574 223.283 303.753 223.283C305.748 223.283 307.697 222.639 309.311 221.445C310.572 220.506 311.925 219.503 312.521 219.062C313.781 218.129 314.822 218.569 316.031 217.247C316.523 216.714 317.124 215.52 317.512 214.435C317.425 213.114 317.101 211.867 316.662 210.649C316.482 210.145 316.274 209.652 316.095 209.159L316.089 209.154Z" fill="black"/>
<path d="M168.89 262.871C168.89 262.871 167.218 259.728 168.242 255.171L167.201 256.969C166.993 258.047 166.594 260.146 166.455 260.853C166.258 261.827 166.744 266.112 168.074 268.031L168.89 262.871Z" fill="#00FFA7"/>
<path d="M168.249 268.785L167.838 268.193C166.479 266.234 165.953 261.891 166.172 260.795C166.317 260.082 166.716 257.989 166.918 256.911L166.953 256.818L168.943 253.374L168.526 255.229C167.537 259.618 169.128 262.703 169.145 262.732L169.191 262.819L168.249 268.785ZM167.479 257.067C167.271 258.157 166.878 260.204 166.739 260.905C166.589 261.665 166.907 265.092 167.919 267.167L168.59 262.911C168.353 262.424 167.329 260.082 167.699 256.69L167.479 257.067Z" fill="black"/>
<path d="M207.783 278.415C203.538 279.262 196.199 279.012 196.199 279.012L192.792 282.955C192.792 282.955 200.172 284.514 204.509 283.674C208.847 282.827 211.762 281.041 213.381 279.551C215.001 278.056 218.366 277.151 218.366 277.151L220.148 274.003C217.458 275.499 212.016 277.574 207.777 278.421L207.783 278.415Z" fill="#00FFA7"/>
<path d="M201.404 284.219C197.402 284.219 192.966 283.291 192.729 283.245L192.249 283.14L196.066 278.722H196.205C196.28 278.728 203.561 278.96 207.725 278.137C211.953 277.296 217.395 275.203 220.015 273.754L220.912 273.255L218.564 277.406L218.448 277.435C218.413 277.447 215.128 278.345 213.578 279.772C212.323 280.925 209.489 283.007 204.562 283.964C203.608 284.149 202.52 284.219 201.404 284.219ZM193.336 282.769C195.042 283.094 200.861 284.091 204.458 283.39C209.241 282.462 211.982 280.45 213.191 279.337C214.689 277.957 217.557 277.081 218.182 276.902L219.419 274.71C216.551 276.136 211.699 277.928 207.841 278.699L207.783 278.415L207.841 278.699C203.937 279.476 197.362 279.337 196.326 279.308L193.336 282.769Z" fill="black"/>
<path d="M191.828 283.042C191.226 283.042 190.295 282.816 189.555 282.549C188.253 282.085 182.482 279.783 178.034 277.052C173.587 274.322 169.041 270.246 168.497 269.608C168.156 269.208 168.116 268.182 168.168 267.619L168.891 262.871C170.128 264.233 172.858 267.092 179 270.872C185.333 274.774 193.915 278.148 196.194 279.012L192.88 282.856C192.579 282.978 192.227 283.042 191.822 283.042H191.828Z" fill="#00FFA7"/>
<path d="M191.827 283.332C191.133 283.332 190.115 283.059 189.456 282.821C188.149 282.352 182.354 280.044 177.877 277.302C173.401 274.554 168.82 270.443 168.271 269.799C167.837 269.289 167.82 268.135 167.872 267.59L168.687 262.227L169.098 262.674C170.671 264.402 173.424 267.098 179.15 270.628C185.425 274.49 193.857 277.818 196.292 278.745L196.679 278.89L193.053 283.1L192.989 283.129C192.654 283.262 192.266 283.332 191.827 283.332ZM169.086 263.509L168.45 267.666C168.392 268.286 168.473 269.144 168.71 269.423C169.248 270.054 173.754 274.09 178.178 276.809C182.608 279.528 188.351 281.813 189.646 282.276C190.445 282.56 191.318 282.752 191.821 282.752C192.156 282.752 192.451 282.705 192.706 282.613L195.702 279.134C192.845 278.032 184.864 274.82 178.843 271.115C173.522 267.84 170.735 265.254 169.075 263.503L169.086 263.509Z" fill="black"/>
<path d="M203.307 303.097C200.231 303.097 198.015 302.273 195.211 301.235C194.748 301.062 194.268 300.888 193.759 300.702C190.225 299.427 182.186 295.304 176.721 291.686C170.463 287.547 166.045 283.529 164.593 280.653L165.108 280.392C166.513 283.181 170.862 287.118 177.039 291.205C182.47 294.794 190.445 298.893 193.95 300.157C194.459 300.343 194.939 300.517 195.407 300.69C198.154 301.711 200.329 302.517 203.302 302.517C208.582 302.517 210.577 301.873 211.323 301.334C211.699 301.062 212.006 300.748 212.283 300.354C210.918 300.743 208.541 301.311 206.112 301.398C202.232 301.537 199.785 301.554 198.455 300.163L197.79 299.461C196.13 297.716 192.683 294.092 191.37 292.921C190.3 291.965 187.947 290.892 185.87 289.947C185.072 289.582 184.32 289.24 183.707 288.932C179.983 287.065 177.86 285.262 175.813 283.517C173.673 281.697 171.649 279.975 167.971 278.421C166.64 277.858 165.264 277.377 163.876 276.983L164.032 276.426C165.443 276.826 166.843 277.313 168.196 277.887C171.955 279.476 174.009 281.227 176.189 283.077C178.213 284.799 180.301 286.573 183.968 288.411C184.569 288.712 185.315 289.054 186.107 289.414C188.224 290.376 190.618 291.466 191.752 292.481C193.082 293.669 196.541 297.305 198.206 299.055L198.871 299.757C200.034 300.975 202.37 300.951 206.095 300.818C208.963 300.714 211.763 299.919 212.833 299.583L213.498 299.374L213.174 299.995C212.769 300.777 212.289 301.346 211.664 301.798C210.485 302.656 207.668 303.091 203.307 303.091V303.097Z" fill="black"/>
<path d="M208.662 294.835C207.869 294.835 206.863 294.811 206.383 294.788C206.233 294.788 206.129 294.736 206.053 294.637C205.915 294.458 205.903 294.15 205.944 293.994C206.007 293.716 206.736 289.802 207.089 287.883H207.829C208.471 287.883 208.997 287.883 209.379 287.883C209.818 287.883 210.125 288.011 210.316 288.266C210.958 289.129 210.31 291.327 210.032 292.26C209.761 293.171 209.46 294.11 208.945 294.835C208.858 294.835 208.76 294.835 208.667 294.835H208.662Z" fill="white"/>
<path d="M209.391 287.587V288.167C209.836 288.167 209.998 288.318 210.085 288.434C210.64 289.182 209.998 291.356 209.755 292.173C209.507 293.008 209.229 293.872 208.795 294.545C208.755 294.545 208.714 294.545 208.668 294.545C207.876 294.545 206.875 294.522 206.401 294.504C206.32 294.504 206.303 294.481 206.291 294.464C206.228 294.377 206.204 294.174 206.233 294.063C206.297 293.785 206.968 290.167 207.338 288.179H207.743C208.425 288.179 208.992 288.179 209.391 288.179L209.403 287.599M209.403 287.599H209.391C208.992 287.599 208.431 287.599 207.749 287.599C207.471 287.599 207.176 287.599 206.864 287.599C206.551 289.303 205.742 293.652 205.678 293.936C205.597 294.29 205.678 295.061 206.389 295.09C206.823 295.107 207.853 295.136 208.68 295.136C208.83 295.136 208.975 295.136 209.108 295.136C209.709 294.348 210.039 293.31 210.322 292.353C210.843 290.602 211.629 287.605 209.403 287.605V287.599Z" fill="black"/>
<path d="M195.089 280.444C188.392 277.916 182.782 275.284 178.421 272.617C172.938 269.26 169.798 266.17 168.416 264.622L168.844 264.233C170.209 265.753 173.308 268.802 178.722 272.119C183.053 274.768 188.629 277.383 195.291 279.899L195.089 280.444Z" fill="black"/>
<path d="M168.33 266.373C169.747 267.996 172.986 271.44 178.018 274.49C184.79 278.583 190.949 280.891 193.8 281.784" fill="#00FFA7"/>
<path d="M193.713 282.062C191.891 281.488 185.361 279.273 177.866 274.739C174.222 272.53 170.851 269.701 168.109 266.564L168.543 266.182C171.244 269.278 174.569 272.066 178.161 274.241C185.598 278.74 192.076 280.937 193.88 281.505L193.707 282.056L193.713 282.062Z" fill="black"/>
<path d="M183.908 289.124C183.845 289.124 183.752 289.083 183.723 289.066C177.784 286.039 173.215 282.885 171.017 281.268L170.994 281.25L170.965 281.239C170.965 281.239 170.635 281.07 170.635 280.531V278.293C170.635 278.114 170.67 278.061 170.67 278.061C170.682 278.079 170.739 278.102 170.768 278.119C173.018 279.731 177.685 282.879 183.48 285.738L183.509 285.749H183.538C183.579 285.767 183.943 285.888 183.943 286.387V288.961C183.943 289.072 183.926 289.124 183.914 289.13V289.118L183.908 289.124Z" fill="white"/>
<path d="M170.919 278.583C173.296 280.265 177.807 283.262 183.347 285.999L183.382 286.022L183.44 286.039C183.532 286.068 183.642 286.155 183.642 286.393V288.706C177.824 285.726 173.348 282.63 171.179 281.041V281.018L171.092 280.989C171.063 280.972 170.913 280.868 170.913 280.537V278.589M170.635 277.789C170.485 277.789 170.335 277.887 170.335 278.293V280.531C170.335 281.279 170.838 281.505 170.838 281.505C172.926 283.042 177.564 286.26 183.573 289.321C183.573 289.321 183.741 289.419 183.903 289.419C184.065 289.419 184.221 289.327 184.221 288.967V286.393C184.221 285.639 183.596 285.483 183.596 285.483C177.842 282.642 173.215 279.528 170.913 277.876C170.913 277.876 170.78 277.789 170.635 277.789Z" fill="black"/>
<path d="M197.569 301.78C197.176 301.241 196.655 300.47 196.285 299.687C195.602 298.244 194.133 296.817 191.068 295.391C188.003 293.965 180.751 291.02 176.91 288.121C173.07 285.222 169.097 282.363 167.374 280.595C165.934 279.117 165.193 279.354 164.655 280.102C164.713 280.253 164.777 280.404 164.846 280.537C166.471 283.761 171.543 287.929 176.876 291.46C182.208 294.985 190.27 299.154 193.85 300.441C195.227 300.94 196.418 301.404 197.563 301.786L197.569 301.78Z" fill="#00FFA7"/>
<path d="M198.339 302.343L197.477 302.053C196.749 301.809 195.997 301.531 195.199 301.235C194.736 301.067 194.262 300.888 193.759 300.708C190.225 299.432 182.186 295.31 176.721 291.692C170.463 287.552 166.044 283.535 164.593 280.659C164.523 280.514 164.454 280.363 164.39 280.201L164.333 280.056L164.425 279.928C164.743 279.482 165.102 279.25 165.512 279.221C166.108 279.175 166.762 279.546 167.583 280.392C168.965 281.813 171.845 283.969 174.899 286.248C175.622 286.787 176.356 287.338 177.091 287.889C180.173 290.214 185.511 292.585 189.039 294.156C189.872 294.527 190.612 294.852 191.196 295.124C194.042 296.452 195.742 297.861 196.552 299.56C196.922 300.337 197.437 301.102 197.807 301.606L198.345 302.343H198.339ZM164.986 280.137C165.027 280.23 165.061 280.311 165.107 280.398C166.513 283.187 170.862 287.123 177.039 291.211C182.469 294.806 190.45 298.899 193.949 300.163C194.453 300.343 194.933 300.522 195.395 300.696C195.887 300.876 196.361 301.056 196.824 301.218C196.546 300.795 196.257 300.308 196.02 299.815C195.274 298.244 193.66 296.922 190.942 295.658C190.358 295.385 189.629 295.061 188.796 294.69C185.24 293.113 179.873 290.724 176.732 288.358C176.003 287.808 175.269 287.257 174.546 286.718C171.475 284.422 168.578 282.253 167.161 280.798C166.49 280.108 165.952 279.766 165.547 279.801C165.35 279.818 165.165 279.928 164.986 280.149V280.137Z" fill="black"/>
<path d="M252.292 250.846L271.51 238.531L297.964 221.468C297.964 221.468 309.351 213.27 311.023 211.137C312.694 209.003 312.44 205.356 307.686 201.924L307.801 204.875V207.171L304.21 204.521L303.469 204.104C303.469 204.104 290.914 210.702 286.906 212.818C283.713 214.505 265.848 224.68 258.735 228.739C256.04 230.275 252.917 230.913 249.851 230.472C249.811 230.472 249.776 230.461 249.736 230.455C245.815 229.869 237.22 226.773 230.922 223.011C225.289 219.642 219.286 214.737 219.037 210.325C218.91 210.423 218.835 210.481 218.835 210.481L196.818 230.577" fill="#00FFA7"/>
<path d="M252.449 251.09L252.137 250.603L271.355 238.288L297.803 221.225C297.907 221.149 309.167 213.038 310.792 210.957C311.504 210.047 311.787 208.939 311.619 207.751C311.44 206.487 310.654 204.579 307.993 202.521L308.086 204.869V207.751L304.037 204.759L303.465 204.434C302.082 205.159 290.799 211.09 287.04 213.073C283.871 214.749 266.289 224.762 258.88 228.988C256.104 230.571 252.883 231.203 249.812 230.757L249.691 230.739C245.573 230.125 236.984 226.97 230.767 223.254C227.372 221.225 219.605 216.065 218.801 210.893L197.009 230.791L196.622 230.362L218.639 210.267L219.293 209.757L219.322 210.307C219.518 213.827 223.908 218.482 231.068 222.761C237.227 226.443 245.712 229.562 249.777 230.171L249.876 230.188C252.837 230.617 255.925 230.014 258.597 228.495C266.011 224.269 283.599 214.256 286.774 212.574C290.782 210.458 303.338 203.86 303.338 203.86L303.476 203.785L304.35 204.283L307.507 206.614V204.886L307.369 201.35L307.849 201.698C311.064 204.017 311.984 206.232 312.192 207.681C312.383 209.009 312.042 210.307 311.243 211.328C309.566 213.467 298.595 221.381 298.127 221.718L271.662 238.792L252.443 251.107L252.449 251.09Z" fill="black"/>
<path d="M196.581 230.861C196.581 230.861 191.688 232.855 193.828 237.83C194.279 238.879 194.99 239.801 195.84 240.566C197.94 242.439 202.462 246.301 207.257 249.321C215.452 254.487 224.11 257.351 224.11 257.351L224.295 257.427C227.377 258.662 230.662 259.363 233.982 259.352C236.272 259.346 238.8 259.027 241.015 258.018L247.4 254.006" fill="#00FFA7"/>
<path d="M233.907 259.641C230.685 259.641 227.412 258.986 224.191 257.693L224.005 257.618C223.936 257.595 215.238 254.69 207.106 249.565C202.352 246.567 197.888 242.775 195.649 240.781C194.718 239.952 194.018 238.995 193.562 237.946C192.891 236.386 192.816 234.943 193.342 233.655C194.209 231.533 196.378 230.629 196.471 230.594L196.69 231.133C196.69 231.133 194.643 231.991 193.874 233.882C193.411 235.018 193.486 236.311 194.094 237.72C194.51 238.694 195.164 239.581 196.031 240.352C198.252 242.335 202.688 246.103 207.407 249.078C215.481 254.162 224.115 257.05 224.196 257.079L224.393 257.16C227.551 258.424 230.743 259.068 233.895 259.068H233.976C236.671 259.056 238.996 258.621 240.893 257.763L247.243 253.768L247.55 254.261L241.165 258.273C239.158 259.183 236.752 259.641 233.976 259.647H233.895L233.907 259.641Z" fill="black"/>
<path d="M235.144 256.986C230.951 256.986 224.318 255.021 217.823 251.849C210.119 248.092 201.242 242.085 197.61 238.184C194.296 234.624 197.182 230.919 197.309 230.762L217.551 212.284C218.077 214.598 220.356 218.853 229.066 224.315C230.194 225.022 240.216 231.162 249.707 232.391C249.47 232.768 249.227 233.168 248.984 233.597C246.688 237.534 239.43 251.113 236.33 256.922C235.96 256.963 235.561 256.98 235.144 256.98V256.986Z" fill="white"/>
<path d="M217.396 212.829C218.13 215.282 220.681 219.41 228.916 224.57C230.032 225.272 239.812 231.261 249.228 232.629C249.06 232.902 248.892 233.18 248.73 233.458C246.457 237.36 239.286 250.771 236.146 256.656C235.827 256.685 235.492 256.696 235.139 256.696C230.987 256.696 224.399 254.736 217.945 251.588C210.271 247.843 201.428 241.865 197.813 237.986C194.8 234.745 197.206 231.365 197.501 230.977L217.39 212.824M217.737 211.722L197.079 230.583C197.079 230.583 193.863 234.589 197.391 238.381C200.919 242.172 209.773 248.243 217.691 252.11C223.7 255.044 230.593 257.276 235.133 257.276C235.619 257.276 236.076 257.253 236.504 257.195C239.639 251.316 246.926 237.685 249.222 233.748C249.551 233.18 249.875 232.652 250.188 232.165C241.86 231.226 232.542 226.159 229.211 224.072C219.854 218.21 218.015 213.792 217.731 211.722H217.737Z" fill="black"/>
<path d="M271.563 224.193L285.726 216.355L289.087 218.587L289.584 223.625L288.826 224.153L272.442 234.577L271.563 224.193Z" fill="white"/>
<path d="M285.715 216.691L288.815 218.755L289.283 223.486L288.682 223.898L272.691 234.073L271.863 224.35L285.715 216.691ZM285.744 216.013L271.256 224.025L272.193 235.076L288.988 224.39L289.885 223.77L289.353 218.424L285.732 216.013H285.744Z" fill="black"/>
<path d="M293.026 216.308L289.978 213.919L297.843 209.188L303.997 213.328L293.691 220.32L293.026 216.308Z" fill="white"/>
<path d="M297.831 209.53L303.481 213.328L293.904 219.822L293.331 216.372L293.297 216.152L293.117 216.013L290.486 213.948L297.831 209.53ZM297.848 208.846L289.462 213.885L292.759 216.465L293.482 220.807L304.517 213.322L297.848 208.841V208.846Z" fill="black"/>
<path d="M298.606 206.666L308.495 213.467C309.693 212.476 310.624 211.635 311.017 211.137C311.277 210.806 311.485 210.435 311.642 210.029L308.085 206.974L305.39 205.194L303.47 204.104C303.47 204.104 301.365 205.211 298.606 206.661V206.666Z" fill="#00FFA7"/>
<path d="M308.513 213.833L298.045 206.632L303.476 203.779L305.535 204.944L308.247 206.736L311.989 209.942L311.914 210.133C311.752 210.563 311.526 210.957 311.249 211.316C310.873 211.797 310.034 212.574 308.681 213.693L308.513 213.833ZM299.167 206.701L308.484 213.108C309.687 212.105 310.462 211.386 310.798 210.957C311 210.702 311.168 210.418 311.301 210.116L307.9 207.2L305.234 205.443L303.47 204.446L299.173 206.707L299.167 206.701Z" fill="black"/>
<path d="M236.249 257.201C237.007 255.78 238.007 253.907 239.118 251.832C225.151 242.573 204.597 230.78 199.675 227.979L196.818 230.588C196.818 230.588 193.602 234.595 197.13 238.387C200.658 242.178 209.513 248.249 217.43 252.116C224.081 255.363 231.813 257.751 236.249 257.201Z" fill="#00FFA7"/>
<path d="M234.908 257.566C230.628 257.566 223.948 255.618 217.303 252.371C209.548 248.585 200.595 242.526 196.917 238.584C193.256 234.653 196.552 230.449 196.587 230.403L199.629 227.62L199.814 227.724C205.586 231.012 225.498 242.457 239.274 251.588L239.494 251.733L239.367 251.965C238.257 254.041 237.256 255.913 236.498 257.334L236.429 257.467L236.279 257.485C235.856 257.537 235.394 257.56 234.902 257.56L234.908 257.566ZM199.716 228.333L197.015 230.803C196.922 230.925 194.037 234.63 197.345 238.189C200.977 242.091 209.86 248.092 217.558 251.855C224.781 255.38 232.016 257.363 236.065 256.934C236.782 255.589 237.707 253.849 238.737 251.93C225.122 242.926 205.673 231.736 199.71 228.339L199.716 228.333Z" fill="black"/>
<path d="M228.957 224.077C219.749 217.978 217.76 213.798 217.476 211.728L196.818 230.588C196.818 230.588 193.603 234.595 197.13 238.387C198.073 239.401 199.403 240.578 200.988 241.836C206.239 237.639 216.337 230.716 231.472 225.683C230.379 225.086 229.668 224.553 228.951 224.077H228.957Z" fill="#00FFA7"/>
<path d="M200.994 242.207L200.815 242.062C199.166 240.764 197.859 239.592 196.922 238.584C193.262 234.653 196.558 230.449 196.593 230.403L217.691 211.137L217.766 211.682C218.02 213.583 219.842 217.688 229.119 223.828C229.286 223.938 229.454 224.054 229.633 224.176C230.177 224.547 230.796 224.97 231.617 225.422L232.201 225.741L231.571 225.95C217.072 230.774 207.038 237.372 201.179 242.057L201 242.202L200.994 242.207ZM217.292 212.29L197.015 230.803C196.922 230.925 194.036 234.63 197.345 238.189C198.229 239.14 199.456 240.242 200.994 241.465C206.835 236.827 216.673 230.397 230.773 225.614C230.2 225.272 229.732 224.953 229.304 224.663C229.13 224.547 228.963 224.431 228.801 224.321C220.091 218.552 217.812 214.465 217.292 212.29Z" fill="black"/>
<path d="M256.48 245.298L267.376 238.346L266.641 226.704L258.03 231.22L251.795 243.048L253.316 247.298L256.48 245.298Z" fill="white"/>
<path d="M253.166 247.738L251.478 243.025L257.816 231.006L266.908 226.24L267.677 238.497L253.166 247.733V247.738ZM252.108 243.071L253.467 246.863L256.324 245.054L267.075 238.195L266.381 227.173L258.238 231.441L252.102 243.071H252.108Z" fill="black"/>
<path d="M242.785 281.146L241.264 258.633L240.83 258.238L241.217 257.809L241.825 258.366L243.363 281.105L242.785 281.146Z" fill="black"/>
<path d="M272.384 238.218H271.806V263.688H272.384V238.218Z" fill="black"/>
<path d="M302.082 236.044H301.504V227.237L297.722 221.631L298.202 221.306L302.082 227.057V236.044Z" fill="black"/>
<path d="M312.145 231.858L311.625 231.603L312.718 229.348L313.042 218.245L313.62 218.262L313.267 229.545L312.145 231.858Z" fill="black"/>
<path d="M307.45 201.544L303.322 203.885L303.607 204.389L307.735 202.049L307.45 201.544Z" fill="black"/>
<path d="M201.593 281.185L199.325 282.729L199.65 283.209L201.918 281.665L201.593 281.185Z" fill="black"/>
<path d="M199.421 282.891C199.299 282.891 199.143 282.845 198.987 282.763C198.351 282.427 197.761 281.586 197.692 280.926C197.669 280.676 197.721 280.496 197.842 280.427C197.888 280.404 197.946 280.386 198.01 280.386C198.131 280.386 198.287 280.433 198.443 280.514C199.08 280.85 199.675 281.691 199.739 282.352C199.762 282.601 199.71 282.781 199.594 282.85C199.548 282.879 199.49 282.891 199.427 282.891H199.421Z" fill="white"/>
<path d="M198.01 280.676C198.045 280.676 198.149 280.688 198.311 280.775C198.86 281.065 199.398 281.818 199.45 282.387C199.462 282.526 199.438 282.595 199.45 282.601C199.45 282.601 199.438 282.601 199.427 282.601C199.392 282.601 199.288 282.59 199.126 282.503C198.577 282.213 198.045 281.459 197.987 280.891C197.975 280.746 197.998 280.682 197.987 280.676C197.987 280.676 197.998 280.676 198.01 280.676ZM198.01 280.096C197.888 280.096 197.784 280.125 197.698 280.172C197.484 280.299 197.368 280.566 197.408 280.949C197.484 281.708 198.131 282.636 198.854 283.019C199.062 283.129 199.259 283.181 199.427 283.181C199.548 283.181 199.652 283.152 199.739 283.106C199.953 282.984 200.069 282.711 200.028 282.329C199.953 281.569 199.305 280.641 198.582 280.259C198.374 280.149 198.178 280.096 198.01 280.096Z" fill="black"/>
<path d="M197.869 280.044L197.831 280.623L201.732 280.883L201.77 280.305L197.869 280.044Z" fill="black"/>
<path d="M203.341 282.665C203.22 282.665 203.063 282.618 202.907 282.537C202.271 282.201 201.681 281.36 201.618 280.699C201.6 280.554 201.6 280.293 201.768 280.201H201.762L201.803 280.183C201.843 280.166 201.889 280.16 201.936 280.16C201.982 280.16 202.046 280.166 202.109 280.183C202.196 280.207 202.283 280.241 202.375 280.288C203.011 280.624 203.607 281.465 203.671 282.126C203.694 282.375 203.642 282.555 203.526 282.618C203.48 282.647 203.422 282.659 203.353 282.659L203.341 282.665Z" fill="white"/>
<path d="M201.925 280.456C201.925 280.456 201.977 280.456 202.029 280.473C202.087 280.491 202.156 280.514 202.226 280.554C202.775 280.844 203.313 281.598 203.365 282.166C203.382 282.305 203.359 282.369 203.365 282.381C203.365 282.381 203.353 282.381 203.342 282.381C203.307 282.381 203.203 282.369 203.041 282.282C202.492 281.992 201.96 281.239 201.902 280.67C201.89 280.537 201.908 280.473 201.913 280.456C201.913 280.456 201.925 280.456 201.931 280.456M201.931 279.876C201.844 279.876 201.763 279.893 201.688 279.922C201.688 279.922 201.642 279.946 201.618 279.957C201.404 280.085 201.289 280.351 201.329 280.734C201.404 281.494 202.052 282.421 202.775 282.804C202.983 282.914 203.18 282.966 203.348 282.966C203.469 282.966 203.573 282.937 203.66 282.885C203.874 282.763 203.99 282.491 203.949 282.108C203.874 281.349 203.226 280.421 202.503 280.038C202.388 279.98 202.278 279.934 202.179 279.911C202.093 279.888 202.012 279.876 201.937 279.876H201.931Z" fill="black"/>
<path d="M244.34 252.667L247.908 248.968C248.562 248.289 249.608 248.185 250.378 248.718L255.762 252.441C257.081 253.351 256.774 255.38 255.247 255.861L252.234 256.812C251.997 256.887 251.754 256.916 251.505 256.893L245.641 256.429C244.745 256.36 244.016 255.676 243.889 254.783L243.813 254.273C243.727 253.687 243.923 253.09 244.334 252.661L244.34 252.667Z" fill="#00FFA7"/>
<path d="M251.662 257.195C251.604 257.195 251.546 257.195 251.488 257.189L245.624 256.725C244.583 256.644 243.756 255.861 243.611 254.829L243.536 254.319C243.438 253.635 243.657 252.962 244.132 252.47L247.7 248.77C248.452 247.988 249.649 247.866 250.545 248.486L255.93 252.209C256.63 252.696 256.988 253.519 256.861 254.36C256.734 255.2 256.15 255.884 255.34 256.14L252.327 257.09C252.113 257.16 251.887 257.195 251.667 257.195H251.662ZM244.554 252.87C244.201 253.235 244.039 253.733 244.114 254.238L244.189 254.748C244.299 255.513 244.907 256.087 245.676 256.145L251.54 256.609C251.748 256.627 251.957 256.603 252.159 256.54L255.172 255.589C255.779 255.397 256.202 254.905 256.294 254.273C256.387 253.641 256.132 253.044 255.606 252.684L250.222 248.962C249.562 248.504 248.677 248.597 248.122 249.171L244.554 252.87Z" fill="black"/>
<path d="M217.286 248.481H216.707V362.757H217.286V248.481Z" fill="black"/>
<path d="M216.997 370.108L219.669 365.406L220.224 287.715L216.997 285.923V370.108Z" fill="black"/>
<path d="M216.997 370.398C216.997 370.398 216.945 370.398 216.922 370.387C216.795 370.352 216.708 370.236 216.708 370.108V285.923C216.708 285.819 216.76 285.726 216.852 285.674C216.939 285.622 217.049 285.622 217.142 285.674L220.363 287.465C220.455 287.518 220.513 287.616 220.513 287.721L219.964 365.412C219.964 365.464 219.952 365.511 219.923 365.551L217.251 370.253C217.199 370.346 217.101 370.398 217.003 370.398H216.997ZM217.286 286.416V369.013L219.38 365.325L219.929 287.883L217.286 286.41V286.416Z" fill="black"/>
<path d="M247.273 346.865L219.721 363.035L220.224 287.715L247.453 271.631C247.597 271.55 247.771 271.649 247.771 271.817L247.273 346.87V346.865Z" fill="white"/>
<path d="M219.432 363.539L219.935 287.547L247.308 271.376C247.464 271.284 247.655 271.284 247.811 271.376C247.968 271.469 248.066 271.637 248.06 271.817L247.563 347.033L219.432 363.545V363.539ZM220.514 287.877L220.016 362.525L246.984 346.697L247.482 271.945L220.508 287.877H220.514Z" fill="black"/>
<path d="M220.004 287.877L247.776 271.452L244.948 269.718L217.002 285.807L220.004 287.877Z" fill="black"/>
<path d="M220.004 288.167C219.946 288.167 219.888 288.15 219.842 288.115L216.835 286.039C216.754 285.981 216.707 285.888 216.707 285.79C216.707 285.691 216.765 285.599 216.852 285.552L244.803 269.463C244.896 269.411 245.006 269.411 245.098 269.463L247.92 271.197C248.007 271.249 248.059 271.342 248.059 271.446C248.059 271.55 248.007 271.643 247.915 271.695L220.149 288.121C220.102 288.15 220.05 288.161 220.004 288.161V288.167ZM217.54 285.825L220.016 287.535L247.209 271.446L244.942 270.054L217.54 285.825Z" fill="black"/>
<path d="M223.469 335.483L227.841 332.648L227.928 319.597L223.562 321.644L223.469 335.483Z" fill="black"/>
<path d="M227.875 330.196C229.329 330.196 230.507 329.015 230.507 327.558C230.507 326.101 229.329 324.92 227.875 324.92C226.422 324.92 225.244 326.101 225.244 327.558C225.244 329.015 226.422 330.196 227.875 330.196Z" fill="white"/>
<path d="M227.875 330.486H227.858C227.077 330.486 226.348 330.173 225.799 329.616C225.249 329.059 224.954 328.323 224.954 327.54C224.966 325.934 226.273 324.63 227.875 324.63H227.892C229.506 324.641 230.807 325.963 230.796 327.581C230.784 329.187 229.477 330.492 227.875 330.492V330.486ZM225.533 327.54C225.533 328.167 225.77 328.758 226.209 329.204C226.649 329.651 227.239 329.9 227.863 329.906H227.881C229.165 329.906 230.217 328.862 230.223 327.569C230.229 326.276 229.188 325.215 227.892 325.204H227.875C226.591 325.204 225.538 326.247 225.533 327.54Z" fill="black"/>
<path d="M246.29 37.1656C247.95 37.1656 249.587 37.6062 251.027 38.4411L403.223 125.537C406.04 127.166 407.653 129.99 407.653 133.277C407.653 136.837 405.716 140.165 402.593 141.974L221.792 246.631C220.351 247.46 218.715 247.901 217.055 247.901C215.395 247.901 213.758 247.46 212.318 246.625L60.7524 159.53C57.7913 157.814 56.0215 154.741 56.0215 151.308C56.0215 147.876 57.7913 144.803 60.7524 143.087L241.559 38.4353C242.999 37.6004 244.636 37.1656 246.296 37.1656M246.296 36.5858C244.561 36.5858 242.826 37.038 241.27 37.9367L60.4632 142.588C53.766 146.467 53.766 156.155 60.4632 160.034L212.035 247.136C213.591 248.034 215.326 248.486 217.061 248.486C218.796 248.486 220.531 248.034 222.087 247.136L402.888 142.478C409.585 138.599 410.215 128.911 403.518 125.032L251.316 37.9367C249.76 37.038 248.025 36.5858 246.29 36.5858H246.296Z" fill="black"/>
<path d="M207.495 173.497V188.948C207.495 192.925 201.954 196.149 195.113 196.149C188.271 196.149 182.73 192.925 182.73 188.948L182.505 173.497" fill="white"/>
<path d="M195.113 196.439C188.127 196.439 182.442 193.076 182.442 188.948L182.216 173.497H182.794L183.02 188.942C183.02 192.757 188.445 195.859 195.113 195.859C201.781 195.859 207.206 192.757 207.206 188.948V173.497H207.785V188.948C207.785 193.076 202.099 196.439 195.113 196.439Z" fill="black"/>
<path d="M197.351 196.027L197.183 171.282L202.088 171.247L202.255 194.81C200.318 195.743 198.288 196.027 197.351 196.027Z" fill="#009D92"/>
<path d="M197.352 196.317H197.063L196.889 170.998L202.372 170.957L202.545 194.995L202.378 195.076C200.348 196.056 198.26 196.323 197.352 196.323V196.317ZM197.473 171.572L197.635 195.732C198.543 195.685 200.267 195.413 201.961 194.63L201.793 171.543L197.467 171.572H197.473Z" fill="black"/>
<path d="M215.922 156.161L215.494 151.158L219.213 148.838L219.52 149.331L216.102 151.459L216.501 156.115L215.922 156.161Z" fill="black"/>
<path d="M212.1 157.205L211.33 149.47L216.709 144.577L217.102 145.006L211.932 149.702L212.672 157.147L212.1 157.205Z" fill="black"/>
<path d="M194.997 180.761C201.896 180.761 207.489 177.509 207.489 173.497C207.489 169.485 201.896 166.232 194.997 166.232C188.098 166.232 182.505 169.485 182.505 173.497C182.505 177.509 188.098 180.761 194.997 180.761Z" fill="#009D92"/>
<path d="M194.997 181.051C187.947 181.051 182.216 177.66 182.216 173.497C182.216 169.334 187.953 165.942 194.997 165.942C202.042 165.942 207.779 169.334 207.779 173.497C207.779 177.66 202.042 181.051 194.997 181.051ZM194.997 166.516C188.266 166.516 182.794 169.647 182.794 173.491C182.794 177.335 188.271 180.466 194.997 180.466C201.724 180.466 207.2 177.335 207.2 173.491C207.2 169.647 201.724 166.516 194.997 166.516Z" fill="black"/>
<path d="M195.299 173.856C194.391 173.856 193.419 173.323 193.419 172.146C193.419 169.624 194.026 140.611 194.067 138.628L199.902 131.81L202.453 132.517L197.612 138.796V138.895C197.606 139.202 197.155 169.403 197.155 172.117C197.155 173.317 196.224 173.856 195.304 173.856H195.299Z" fill="white"/>
<path d="M200.001 132.146L201.955 132.686L197.439 138.547L197.323 138.698V138.889C197.317 139.197 196.86 169.398 196.86 172.111C196.86 173.184 196.022 173.561 195.299 173.561C194.535 173.561 193.708 173.114 193.708 172.14C193.708 169.659 194.298 141.452 194.356 138.733L200.006 132.135M199.804 131.48L193.783 138.512C193.783 138.512 193.136 169.508 193.136 172.14C193.136 173.462 194.223 174.14 195.305 174.14C196.386 174.14 197.444 173.474 197.444 172.111C197.444 169.369 197.901 138.895 197.901 138.895L202.944 132.349L199.804 131.48Z" fill="black"/>
<path d="M200.567 143.655C200.567 143.655 197.398 139.753 200.527 137.683C203.656 135.608 216.917 137.028 221.729 150.989C221.729 150.989 214.667 154.636 204.327 154.503C195.565 154.387 195.484 149.041 195.484 149.041C195.484 149.041 194.373 142.988 200.573 143.655H200.567Z" fill="black"/>
<path d="M198.028 120.823C198.028 120.823 194.858 116.921 197.987 114.851C201.116 112.776 214.377 114.196 219.189 128.157C219.189 128.157 212.128 131.804 201.787 131.671C193.025 131.555 192.944 126.209 192.944 126.209C192.944 126.209 191.834 120.156 198.033 120.823H198.028Z" fill="black"/>
<path d="M186.444 132.349C186.444 132.349 189.561 128.407 186.403 126.377C183.246 124.348 170.007 125.96 165.392 139.991C165.392 139.991 172.506 143.539 182.847 143.255C191.603 143.012 191.609 137.666 191.609 137.666C191.609 137.666 192.632 131.595 186.444 132.355V132.349Z" fill="black"/>
<path d="M188.572 149.32C188.572 149.32 189.561 144.386 185.831 144.015C182.101 143.644 171.031 151.1 173.27 165.699C173.27 165.699 181.216 165.623 190.302 160.666C197.999 156.468 195.582 151.697 195.582 151.697C195.582 151.697 193.749 145.824 188.572 149.314V149.32Z" fill="black"/>
<path d="M189.903 133.097C189.903 133.097 193.02 129.155 189.862 127.125C186.705 125.096 173.466 126.708 168.851 140.739C168.851 140.739 175.965 144.287 186.306 144.003C195.062 143.759 195.068 138.414 195.068 138.414C195.068 138.414 196.091 132.343 189.903 133.103V133.097Z" fill="#00FFA7"/>
<path d="M185.136 144.304C175.472 144.304 168.793 141.029 168.723 140.994L168.498 140.884L168.579 140.646C171.517 131.711 177.693 128.331 181.117 127.114C185.027 125.722 188.554 125.943 190.018 126.882C190.868 127.427 191.371 128.152 191.521 129.039C191.764 130.482 190.983 131.984 190.498 132.755C192.123 132.668 193.378 133.074 194.228 133.961C195.813 135.625 195.373 138.344 195.356 138.454C195.356 138.46 195.252 144.038 186.316 144.287C185.923 144.299 185.53 144.304 185.142 144.304H185.136ZM169.203 140.582C170.493 141.168 177.167 143.962 186.293 143.707C194.644 143.475 194.772 138.611 194.777 138.408C194.783 138.338 195.188 135.811 193.806 134.361C192.985 133.503 191.683 133.173 189.937 133.387L189.237 133.474L189.671 132.923C189.671 132.923 191.238 130.906 190.943 129.137C190.822 128.418 190.405 127.827 189.7 127.375C188.387 126.534 184.998 126.348 181.302 127.665C178.011 128.836 172.095 132.071 169.203 140.588V140.582Z" fill="black"/>
<path d="M169.093 140.89L168.608 140.576C170.013 138.35 187.803 133.375 189.827 132.813L189.983 133.37C182.124 135.544 170.071 139.347 169.099 140.884L169.093 140.89Z" fill="black"/>
<path d="M174.716 142.687L174.137 142.646L174.473 137.991L171.026 135.915L171.321 135.416L175.074 137.678L174.716 142.687Z" fill="black"/>
<path d="M179.712 143.661L179.134 143.615L179.77 136.158L174.536 131.532L174.918 131.097L180.372 135.915L179.712 143.661Z" fill="black"/>
<path d="M184.564 144.084L183.998 143.957L186.218 134.164L179.406 128.273L179.782 127.833L186.86 133.955L184.564 144.084Z" fill="black"/>
<path d="M191.388 142.919L190.075 133.167L185.31 126.615L185.778 126.279L190.625 132.941L191.961 142.843L191.388 142.919Z" fill="black"/>
<path d="M191.557 150.23C191.557 150.23 193.026 145.418 189.348 144.681C185.67 143.945 173.924 150.276 174.727 165.026C174.727 165.026 182.639 165.733 192.164 161.692C200.232 158.271 198.295 153.285 198.295 153.285C198.295 153.285 197.046 147.261 191.557 150.224V150.23Z" fill="#009D92"/>
<path d="M176.15 165.362C175.236 165.362 174.722 165.322 174.704 165.316L174.456 165.293L174.444 165.043C173.935 155.645 178.464 150.247 181.205 147.864C184.339 145.139 187.711 144.055 189.412 144.397C190.4 144.594 191.135 145.087 191.598 145.858C192.349 147.116 192.17 148.798 191.991 149.691C193.477 149.012 194.79 148.931 195.906 149.453C197.988 150.421 198.567 153.111 198.59 153.227C198.596 153.233 200.521 158.469 192.286 161.959C185.172 164.974 178.891 165.357 176.156 165.357L176.15 165.362ZM175.005 164.754C176.422 164.829 183.645 164.991 192.055 161.426C199.746 158.161 198.104 153.587 198.029 153.39C198.011 153.32 197.468 150.821 195.652 149.975C194.576 149.476 193.246 149.644 191.696 150.479L191.077 150.815L191.28 150.143C191.28 150.143 192.008 147.69 191.089 146.154C190.719 145.528 190.111 145.128 189.29 144.965C187.763 144.664 184.542 145.725 181.575 148.299C178.938 150.589 174.6 155.761 174.999 164.754H175.005Z" fill="black"/>
<path d="M175.012 165.09L174.445 164.98C174.942 162.394 189.707 151.262 191.385 150.004L191.732 150.468C185.202 155.367 175.359 163.298 175.012 165.09Z" fill="black"/>
<path d="M180.344 164.881L178.968 160.423L175 159.744L175.098 159.176L179.413 159.912L180.899 164.713L180.344 164.881Z" fill="black"/>
<path d="M185.352 163.953L183.236 156.781L176.677 154.387L176.88 153.842L183.71 156.335L185.902 163.791L185.352 163.953Z" fill="black"/>
<path d="M190.002 162.504L188.516 152.572L180.026 149.569L180.222 149.024L189.036 152.143L190.575 162.417L190.002 162.504Z" fill="black"/>
<path d="M196.508 158.84L191.742 150.236L184.929 145.876L185.236 145.383L192.176 149.824L197.017 158.556L196.508 158.84Z" fill="black"/>
<path d="M199.701 124.076C199.701 124.076 196.531 120.174 199.66 118.104C202.789 116.028 216.05 117.449 220.862 131.41C220.862 131.41 213.801 135.057 203.46 134.923C194.698 134.808 194.617 129.462 194.617 129.462C194.617 129.462 193.507 123.409 199.706 124.076H199.701Z" fill="#009D92"/>
<path d="M204.014 135.219C203.829 135.219 203.638 135.219 203.453 135.219C194.518 135.103 194.327 129.526 194.327 129.468C194.31 129.398 193.835 126.691 195.397 125.003C196.23 124.099 197.479 123.676 199.11 123.739C198.613 122.974 197.809 121.49 198.034 120.04C198.167 119.153 198.665 118.417 199.503 117.86C200.955 116.898 204.477 116.625 208.41 117.965C211.851 119.136 218.074 122.423 221.139 131.317L221.22 131.555L220.994 131.671C220.925 131.706 214.008 135.219 204.014 135.219ZM198.786 124.313C197.479 124.313 196.478 124.679 195.813 125.398C194.449 126.87 194.888 129.387 194.894 129.41C194.905 129.665 195.102 134.523 203.453 134.634C212.58 134.761 219.213 131.868 220.497 131.265C217.484 122.789 211.521 119.64 208.213 118.516C204.5 117.252 201.111 117.484 199.816 118.347C199.116 118.811 198.705 119.408 198.595 120.127C198.323 121.901 199.902 123.873 199.92 123.896L200.365 124.441L199.665 124.366C199.359 124.331 199.064 124.313 198.78 124.313H198.786Z" fill="black"/>
<path d="M220.619 131.572C219.624 130.047 207.52 126.424 199.631 124.36L199.776 123.797C201.806 124.331 219.665 129.05 221.105 131.253L220.619 131.572Z" fill="black"/>
<path d="M215.027 133.451L214.593 128.447L218.312 126.128L218.619 126.621L215.201 128.749L215.6 133.399L215.027 133.451Z" fill="black"/>
<path d="M210.041 134.494L209.271 126.76L214.656 121.861L215.043 122.29L209.873 126.992L210.619 134.436L210.041 134.494Z" fill="black"/>
<path d="M205.2 134.987L202.754 124.887L209.746 118.666L210.127 119.101L203.395 125.09L205.761 134.854L205.2 134.987Z" fill="black"/>
<path d="M198.358 133.92L197.78 133.851L198.971 123.931L203.725 117.199L204.199 117.53L199.532 124.145L198.358 133.92Z" fill="black"/>
<path d="M201.759 146.786C201.759 146.786 198.59 142.884 201.719 140.814C204.848 138.738 218.109 140.159 222.921 154.12C222.921 154.12 215.859 157.767 205.518 157.634C196.757 157.518 196.676 152.172 196.676 152.172C196.676 152.172 195.565 146.119 201.765 146.786H201.759Z" fill="#00FFA7"/>
<path d="M206.073 157.929C205.888 157.929 205.703 157.929 205.512 157.929C196.577 157.813 196.386 152.236 196.386 152.178C196.369 152.108 195.895 149.401 197.456 147.714C198.289 146.809 199.538 146.386 201.169 146.45C200.672 145.684 199.868 144.2 200.093 142.751C200.226 141.864 200.724 141.127 201.562 140.571C203.014 139.608 206.536 139.336 210.469 140.675C213.91 141.846 220.133 145.134 223.198 154.027L223.279 154.265L223.053 154.381C222.984 154.416 216.067 157.929 206.073 157.929ZM200.851 147.024C199.544 147.024 198.543 147.389 197.878 148.108C196.513 149.581 196.953 152.097 196.959 152.12C196.97 152.375 197.167 157.234 205.518 157.344C214.65 157.471 221.278 154.578 222.562 153.975C219.549 145.499 213.586 142.351 210.278 141.226C206.565 139.962 203.176 140.194 201.88 141.058C201.181 141.521 200.77 142.119 200.66 142.838C200.388 144.612 201.967 146.583 201.984 146.606L202.43 147.151L201.73 147.076C201.423 147.041 201.129 147.024 200.845 147.024H200.851Z" fill="black"/>
<path d="M222.676 154.283C221.682 152.758 209.577 149.134 201.688 147.07L201.833 146.508C203.863 147.041 221.722 151.761 223.162 153.964L222.676 154.283Z" fill="black"/>
<path d="M207.253 157.698L204.812 147.603L211.804 141.377L212.186 141.811L205.454 147.806L207.82 157.564L207.253 157.698Z" fill="black"/>
<path d="M200.411 156.631L199.838 156.561L201.03 146.647L205.784 139.91L206.258 140.246L201.585 146.861L200.411 156.631Z" fill="black"/>
<path d="M321.173 163.45C327.411 159.84 328.333 149.735 323.234 140.88C318.135 132.026 308.944 127.775 302.706 131.385C296.469 134.996 295.546 145.1 300.645 153.955C305.745 162.809 314.935 167.06 321.173 163.45Z" fill="#009D92"/>
<path d="M316.252 165.02C310.642 165.02 304.31 160.898 300.394 154.097C295.224 145.116 296.195 134.813 302.557 131.132C305.657 129.34 309.549 129.358 313.511 131.195C317.444 133.016 320.983 136.402 323.476 140.739C325.974 145.076 327.131 149.841 326.738 154.161C326.339 158.521 324.413 161.907 321.313 163.704C319.769 164.597 318.045 165.02 316.247 165.02H316.252ZM307.647 130.384C305.912 130.384 304.286 130.801 302.846 131.636C296.756 135.161 295.883 145.11 300.892 153.813C305.906 162.516 314.934 166.731 321.024 163.205C323.956 161.507 325.783 158.277 326.159 154.114C326.541 149.911 325.413 145.267 322.973 141.034C320.532 136.802 317.085 133.497 313.262 131.729C311.336 130.836 309.434 130.39 307.641 130.39L307.647 130.384Z" fill="black"/>
<path d="M317.554 163.979C323.791 160.369 324.714 150.264 319.615 141.41C314.515 132.555 305.325 128.304 299.087 131.915C292.849 135.525 291.927 145.63 297.026 154.484C302.125 163.339 311.316 167.59 317.554 163.979Z" fill="white"/>
<path d="M312.614 165.565C310.74 165.565 308.751 165.101 306.75 164.174C302.817 162.353 299.278 158.967 296.785 154.63C294.287 150.294 293.13 145.528 293.523 141.208C293.922 136.848 295.848 133.462 298.948 131.665C305.316 127.983 314.696 132.291 319.872 141.272C322.371 145.609 323.528 150.375 323.134 154.694C322.735 159.054 320.809 162.44 317.71 164.238C316.177 165.125 314.453 165.565 312.62 165.565H312.614ZM304.026 130.923C302.326 130.923 300.695 131.323 299.231 132.17C296.299 133.868 294.472 137.098 294.096 141.261C293.714 145.464 294.842 150.108 297.282 154.341C299.723 158.573 303.17 161.878 306.993 163.646C310.781 165.397 314.482 165.432 317.415 163.733C320.347 162.034 322.174 158.805 322.55 154.642C322.932 150.439 321.804 145.795 319.364 141.562C315.552 134.947 309.422 130.923 304.026 130.923Z" fill="black"/>
<path d="M309.486 150.769L312.233 149.088C312.395 148.989 312.493 148.809 312.493 148.624V143.33C312.493 143.133 312.389 142.954 312.222 142.855L307.67 140.211C307.497 140.113 307.288 140.113 307.121 140.211L304.241 141.922C304.044 142.037 304.05 142.322 304.246 142.432L308.757 144.971C308.931 145.07 309.035 145.249 309.035 145.447V150.52C309.035 150.752 309.289 150.891 309.486 150.775V150.769Z" fill="black"/>
<path d="M306.132 145.128L303.385 146.809C303.223 146.908 303.124 147.087 303.124 147.273V152.566C303.124 152.764 303.228 152.943 303.396 153.042L307.948 155.686C308.121 155.784 308.329 155.784 308.497 155.686L311.377 153.975C311.574 153.859 311.568 153.575 311.371 153.465L306.86 150.926C306.687 150.827 306.583 150.647 306.583 150.45V145.377C306.583 145.145 306.328 145.006 306.132 145.122V145.128Z" fill="black"/>
</svg>
